<?xml version="1.0" standalone="no"?>
<!DOCTYPE svg PUBLIC "-//W3C//DTD SVG 20010904//EN"
 "http://www.w3.org/TR/2001/REC-SVG-20010904/DTD/svg10.dtd">
<svg version="1.0" xmlns="http://www.w3.org/2000/svg"
 width="900.000000pt" height="900.000000pt" viewBox="0 0 900.000000 900.000000"
 preserveAspectRatio="xMidYMid meet">
<metadata>
Created by potrace 1.14, written by Peter Selinger 2001-2017
</metadata>
<g transform="translate(0.000000,900.000000) scale(0.100000,-0.100000)"
fill="#000000" stroke="none">
<path d="M0 4500 l0 -4500 4500 0 4500 0 0 4500 0 4500 -4500 0 -4500 0 0
-4500z m7280 3802 c420 -93 799 -366 1052 -758 84 -130 170 -346 206 -515 44
-202 43 -184 40 -2569 l-4 -2285 -22 -99 c-103 -467 -358 -850 -735 -1104
-156 -106 -374 -198 -567 -239 -81 -17 -215 -18 -2755 -18 -3010 0 -2721 -8
-2971 79 -207 73 -409 197 -576 354 -245 233 -406 510 -489 842 l-24 95 0
2350 c0 2210 1 2355 18 2432 84 390 332 750 677 983 217 146 421 222 665 249
56 6 770 8 1915 5 1004 -3 1974 -2 2156 2 l330 7 22 57 c27 68 72 114 138 140
46 19 71 20 439 16 351 -3 399 -5 485 -24z"/>
<path d="M6471 8159 c-63 -13 -71 -30 -71 -150 0 -59 -3 -114 -6 -123 -10 -26
-39 -18 -90 24 l-49 40 -2240 -3 c-2239 -3 -2240 -3 -2330 -24 -270 -63 -470
-178 -685 -393 -205 -205 -333 -431 -403 -710 l-21 -85 -3 -2245 c-3 -2189 -3
-2248 16 -2360 70 -414 317 -794 666 -1025 189 -125 341 -186 559 -225 40 -7
914 -10 2685 -10 2855 0 2686 -3 2871 55 218 69 392 177 573 354 260 253 409
544 479 931 16 93 24 4407 8 4568 -55 542 -369 1000 -855 1247 -240 122 -325
138 -747 139 -179 1 -340 -2 -357 -5z m429 -324 c17 -15 19 -46 23 -383 4
-401 5 -411 64 -500 59 -88 156 -131 342 -151 90 -10 107 -9 127 4 28 18 39
53 30 103 -8 54 -31 78 -136 144 -169 105 -230 185 -250 324 -34 244 113 436
356 464 49 5 117 10 152 10 l63 0 -3 -82 -3 -83 -115 -6 c-133 -7 -172 -20
-227 -78 -44 -45 -63 -95 -63 -167 1 -96 51 -162 190 -246 153 -94 221 -193
221 -322 0 -92 -62 -180 -150 -211 -90 -31 -331 -12 -454 36 -66 26 -167 98
-205 146 -16 21 -42 62 -56 92 -50 97 -56 155 -56 529 l0 344 30 30 c27 26 36
30 67 25 19 -4 44 -13 53 -22z m-2007 -293 c106 -53 207 -180 252 -320 15 -46
23 -56 54 -69 92 -38 304 -146 384 -194 351 -213 685 -572 885 -950 104 -195
201 -477 236 -679 74 -430 27 -867 -136 -1255 -28 -66 -54 -130 -59 -142 l-8
-22 -46 26 c-26 14 -49 32 -52 40 -3 7 11 50 31 94 77 167 139 392 167 599 17
135 15 430 -6 565 -75 498 -306 942 -676 1300 -131 127 -245 215 -391 302
-153 90 -351 184 -363 171 -3 -3 11 -40 29 -84 19 -44 43 -119 52 -168 15 -77
16 -100 5 -173 -16 -112 -57 -240 -86 -269 -16 -16 -36 -24 -58 -24 -34 0 -35
-1 -57 -69 -40 -127 -159 -272 -274 -337 l-55 -30 112 -1 c149 0 222 -22 327
-98 52 -38 94 -93 140 -183 38 -75 29 -47 141 -462 49 -184 103 -380 119 -435
52 -180 191 -687 227 -830 40 -160 55 -361 33 -445 -7 -25 -15 -78 -19 -117
-9 -89 -27 -113 -83 -113 -33 0 -47 -7 -86 -44 -160 -150 -295 -247 -472 -341
l-115 -60 -41 -415 c-23 -228 -43 -430 -45 -447 l-4 -33 110 -5 c95 -4 117 -8
165 -32 77 -40 113 -94 118 -178 6 -98 -28 -166 -105 -211 l-41 -25 -319 3
c-314 3 -318 3 -350 26 -18 13 -45 44 -60 69 -22 39 -28 62 -31 135 l-4 88
-58 0 -57 0 -5 -83 c-8 -121 -46 -186 -130 -222 -54 -22 -664 -23 -707 0 -47
24 -98 92 -111 146 -22 89 26 201 106 248 42 25 173 45 265 39 45 -2 59 0 59
11 0 7 -14 149 -31 315 -17 165 -43 418 -58 561 l-26 260 -50 33 c-135 88
-230 160 -330 251 -105 96 -112 100 -156 101 -52 0 -68 13 -97 78 l-19 43 -99
-92 c-55 -51 -141 -133 -193 -183 -52 -50 -105 -101 -119 -114 -14 -14 -21
-27 -16 -32 5 -5 41 -22 79 -39 39 -16 169 -73 290 -126 121 -53 279 -121 350
-152 143 -61 175 -83 175 -123 0 -62 -41 -64 -164 -9 -50 23 -219 97 -376 166
-156 68 -322 144 -369 168 l-84 44 -89 -81 c-48 -44 -88 -81 -88 -82 0 -10
321 -321 343 -332 53 -28 173 -156 205 -220 107 -213 75 -426 -92 -602 -121
-128 -280 -186 -446 -162 -120 17 -215 64 -320 157 l-44 40 -71 -73 c-94 -97
-160 -129 -265 -129 -128 0 -228 61 -291 177 -29 56 -33 72 -33 138 0 67 3 82
37 145 l37 69 0 601 0 600 24 52 c52 110 148 173 265 173 113 0 191 -45 243
-137 76 -134 28 -299 -109 -380 -69 -40 -172 -44 -247 -10 l-56 26 0 -381 0
-380 38 32 c20 18 141 132 267 254 316 303 383 367 509 481 61 55 234 217 385
359 152 142 288 266 302 275 26 15 27 17 32 146 4 115 10 152 56 325 28 107
100 389 160 625 162 638 205 786 257 891 99 202 270 288 529 269 l70 -6 -65
35 c-123 64 -272 252 -296 373 -5 27 -11 31 -46 36 -56 8 -75 29 -103 120 -75
236 -49 481 70 675 l27 43 -29 -7 c-253 -62 -556 -213 -803 -399 -185 -139
-403 -375 -542 -586 -198 -302 -331 -674 -369 -1039 -15 -140 -6 -454 15 -595
25 -157 81 -405 92 -405 2 0 28 15 57 34 238 152 538 64 661 -194 32 -68 34
-85 25 -268 -2 -51 -4 -54 -78 -124 -42 -40 -210 -200 -375 -357 -298 -285
-411 -390 -453 -418 -44 -30 -94 6 -78 56 3 10 38 47 78 81 40 34 110 99 157
144 47 44 203 193 348 331 145 137 272 265 284 283 28 45 22 166 -11 235 -30
62 -97 129 -162 164 -48 24 -65 28 -144 28 -75 0 -97 -4 -135 -24 -121 -63
-188 -161 -197 -288 -7 -88 7 -137 62 -219 25 -37 45 -70 45 -73 0 -11 -58
-51 -74 -51 -21 0 -72 65 -109 140 -30 61 -32 70 -31 175 0 83 6 125 21 173
19 56 20 67 8 96 -21 50 -83 303 -106 434 -30 166 -37 497 -15 686 97 833 616
1577 1351 1937 77 37 178 82 224 99 102 37 304 90 347 90 22 0 44 12 80 45 89
82 190 144 299 183 64 24 85 26 230 27 114 1 167 5 185 15 55 29 107 40 187
37 67 -3 92 -9 146 -35z m2319 -3311 c25 -9 510 -493 553 -551 18 -24 25 -46
25 -79 l0 -46 -473 -475 c-260 -261 -587 -591 -727 -732 -141 -144 -269 -265
-289 -275 -20 -9 -64 -19 -98 -21 -107 -7 -169 32 -386 246 -60 59 -122 129
-138 157 -51 88 -48 169 8 252 24 35 343 371 833 878 356 369 386 400 546 574
27 30 63 60 79 67 37 16 38 16 67 5z m-4220 -1761 c51 -22 102 -45 113 -50 54
-25 386 -170 390 -170 2 0 29 -11 59 -25 63 -29 86 -56 86 -102 0 -26 -5 -34
-24 -39 -13 -3 -37 1 -52 9 -16 8 -124 56 -241 106 -116 50 -254 111 -305 134
l-94 44 -11 49 c-6 27 -15 57 -18 67 -4 9 -5 17 -2 17 4 0 48 -18 99 -40z"/>
<path d="M4654 7456 c-22 -7 -59 -23 -81 -36 -37 -20 -45 -21 -92 -11 -418 90
-854 -354 -800 -814 11 -95 30 -174 43 -177 11 -3 95 130 132 209 19 39 27 79
34 159 9 112 19 137 71 177 39 28 84 34 199 25 58 -5 148 -6 200 -2 149 9 225
37 320 118 30 26 57 46 61 46 10 0 60 -73 88 -127 12 -24 35 -52 51 -65 44
-32 67 -89 85 -205 18 -120 34 -174 83 -266 41 -80 52 -77 77 18 30 119 12
299 -40 392 -20 37 -23 55 -22 131 2 139 -54 274 -150 362 -80 73 -166 95
-259 66z"/>
<path d="M4636 6944 c-109 -56 -180 -67 -414 -66 l-203 1 -9 -25 c-6 -14 -10
-45 -10 -69 0 -92 -31 -184 -110 -324 -20 -36 -30 -68 -30 -96 0 -59 31 -155
70 -215 72 -112 225 -219 360 -251 79 -19 222 -15 292 9 161 54 301 189 354
341 35 98 32 148 -16 250 -48 106 -70 187 -70 264 0 59 0 59 -60 116 -37 36
-60 66 -60 79 0 29 -13 27 -94 -14z"/>
<path d="M3814 5729 c-67 -19 -127 -71 -161 -137 -54 -105 -46 -195 44 -482
l36 -115 -2 -505 c-2 -425 1 -551 18 -795 31 -434 49 -648 81 -985 16 -168 37
-381 45 -475 9 -93 23 -236 31 -316 7 -80 14 -160 14 -177 l0 -32 -162 0
c-229 0 -265 -14 -276 -105 -6 -53 9 -88 45 -104 16 -7 124 -11 318 -11 293 0
294 0 321 23 30 26 26 -19 54 547 16 326 36 558 54 630 19 78 52 401 69 665
l12 190 44 3 c28 2 47 -1 52 -10 5 -7 9 -76 9 -154 0 -160 25 -657 40 -784 12
-109 28 -377 44 -752 15 -333 16 -340 83 -351 21 -4 154 -7 296 -7 l259 0 29
29 c51 51 35 140 -29 173 -27 13 -66 16 -190 18 -86 0 -157 2 -159 3 -1 2 20
223 47 492 106 1055 127 1270 145 1475 28 317 36 508 40 902 4 365 6 401 23
435 36 71 112 373 112 442 0 93 -70 200 -164 249 l-51 27 -570 2 c-327 1 -583
-2 -601 -8z m1017 -222 c18 -12 44 -38 57 -57 l23 -34 -3 -561 -3 -560 -28
-80 c-37 -104 -65 -152 -137 -228 -197 -210 -466 -221 -674 -26 -74 69 -113
131 -147 234 -24 70 -24 73 -27 657 -3 580 -3 587 18 608 23 23 39 25 63 8 14
-11 17 -47 21 -253 3 -132 5 -298 6 -370 l1 -130 52 -36 c29 -20 104 -80 168
-133 65 -53 124 -96 132 -96 8 0 85 66 172 148 87 81 184 172 217 202 l59 55
6 235 c3 129 3 256 -1 281 -7 45 -8 47 -47 53 -45 7 -66 37 -55 80 6 23 12 26
50 26 28 0 55 -8 77 -23z"/>
<path d="M4600 4538 c-113 -104 -213 -194 -222 -199 -22 -12 -53 4 -133 68
-33 26 -101 80 -151 120 l-91 71 -7 -112 c-16 -271 60 -435 242 -523 66 -31
83 -36 151 -35 129 0 234 55 312 163 80 109 91 152 100 409 4 123 7 225 6 226
-1 1 -94 -84 -207 -188z"/>
<path d="M3517 5260 c-10 -47 -57 -233 -104 -415 -270 -1045 -280 -1089 -270
-1200 7 -69 31 -129 50 -122 17 5 40 69 87 239 40 144 88 290 190 577 78 222
119 386 132 536 l11 130 -33 120 c-18 66 -35 143 -39 170 l-6 50 -18 -85z"/>
<path d="M5270 5284 c0 -16 -14 -90 -30 -164 -60 -270 -55 -295 202 -1025 77
-220 123 -367 170 -550 31 -120 60 -195 77 -195 33 0 41 204 15 355 -21 121
-194 776 -274 1036 -17 53 -56 200 -89 328 -32 128 -62 235 -65 238 -3 4 -6
-7 -6 -23z"/>
<path d="M5190 4310 c0 -55 -11 -211 -25 -348 -13 -136 -29 -301 -35 -367 -6
-66 -22 -219 -35 -340 -13 -121 -27 -256 -31 -299 l-7 -79 89 48 c143 77 248
153 398 288 l48 44 -16 31 c-9 17 -41 120 -71 229 -60 219 -177 574 -249 755
-25 64 -46 121 -46 127 0 6 -4 11 -10 11 -6 0 -10 -40 -10 -100z"/>
<path d="M3523 4142 c-72 -198 -92 -258 -177 -540 l-46 -153 30 -38 c49 -61
315 -271 343 -271 10 0 9 34 -18 335 -46 518 -64 767 -58 813 3 29 4 52 2 52
-2 0 -36 -89 -76 -198z"/>
<path d="M1602 3329 c-60 -30 -86 -70 -90 -144 -3 -50 0 -65 20 -94 33 -48 81
-71 149 -71 42 0 65 6 90 23 109 74 101 235 -15 288 -54 24 -101 24 -154 -2z"/>
<path d="M2055 2569 c-260 -248 -513 -479 -524 -479 -5 0 -12 -26 -16 -57 -6
-46 -14 -66 -40 -95 -67 -73 -69 -149 -6 -235 33 -45 117 -93 164 -93 82 0
172 61 253 171 l36 49 -17 48 c-9 26 -19 81 -22 122 -10 143 41 280 144 385
104 106 216 162 347 173 l79 7 -101 93 c-55 50 -102 92 -104 92 -1 0 -88 -82
-193 -181z"/>
<path d="M4341 2668 c-11 -28 -6 -38 19 -38 24 0 33 15 25 40 -9 27 -34 25
-44 -2z"/>
<path d="M4369 2493 c-14 -3 -18 -25 -23 -131 -4 -70 -11 -185 -17 -257 -5
-71 -9 -158 -9 -192 l0 -63 56 0 57 0 -7 158 c-11 245 -27 476 -34 483 -4 3
-14 4 -23 2z"/>
<path d="M2279 2422 c-191 -71 -304 -245 -283 -441 24 -228 270 -411 485 -361
126 29 253 132 307 247 24 52 27 69 27 168 0 98 -3 116 -27 167 -49 104 -148
190 -257 222 -70 21 -192 19 -252 -2z"/>
<path d="M7141 4079 c-27 -26 -30 -34 -19 -48 35 -43 478 -481 488 -481 16 0
60 47 60 65 0 20 -456 489 -480 493 -9 2 -32 -11 -49 -29z"/>
<path d="M6997 3909 c-44 -49 -452 -473 -672 -699 -539 -554 -565 -584 -565
-647 0 -51 34 -95 176 -234 159 -154 229 -192 296 -160 19 9 170 155 338 326
167 171 428 434 580 585 152 151 300 301 330 333 l54 58 -239 239 c-132 132
-244 240 -250 240 -5 0 -27 -19 -48 -41z m117 -245 c9 -8 16 -23 16 -32 0 -10
-213 -230 -473 -490 -496 -495 -499 -498 -541 -456 -18 17 -19 24 -8 39 34 46
962 955 974 955 9 0 24 -7 32 -16z m50 -350 c28 -11 17 -43 -32 -94 -27 -28
-52 -50 -57 -50 -17 0 -45 34 -45 54 0 23 76 95 102 96 9 0 23 -3 32 -6z
m-164 -190 l45 -46 -35 -29 c-19 -16 -38 -29 -42 -29 -16 0 -77 76 -78 97 0
26 25 53 49 53 9 0 37 -21 61 -46z m-131 -98 c13 -14 21 -30 19 -36 -6 -19
-602 -610 -615 -610 -14 0 -53 35 -53 48 1 12 604 622 616 622 6 0 21 -11 33
-24z"/>
</g>
</svg>
